<?xml version="1.0" encoding="utf-8"?>
<!-- Generator: Adobe Illustrator 27.0.0, SVG Export Plug-In . SVG Version: 6.00 Build 0)  -->
<svg version="1.1" id="Слой_1" xmlns:xodm="http://www.corel.com/coreldraw/odm/2003"
	 xmlns="http://www.w3.org/2000/svg" xmlns:xlink="http://www.w3.org/1999/xlink" x="0px" y="0px" viewBox="0 0 2184.2 793.9"
	 style="enable-background:new 0 0 2184.2 793.9;" xml:space="preserve">
<style type="text/css">
	
		.st0{display:none;fill-rule:evenodd;clip-rule:evenodd;fill:#231D1C;stroke:#2B2A29;stroke-width:0.2159;stroke-miterlimit:1.6779;}
	.st1{fill-rule:evenodd;clip-rule:evenodd;fill:#FEFEFE;stroke:#1F1B20;stroke-width:0.2159;stroke-miterlimit:1.6779;}
	.st2{fill-rule:evenodd;clip-rule:evenodd;fill:#FEFEFE;stroke:#1F1B20;stroke-width:0.5672;stroke-miterlimit:1.6779;}
	.st3{fill-rule:evenodd;clip-rule:evenodd;fill:#241B1D;stroke:#1F1B20;stroke-width:0.2159;stroke-miterlimit:1.6779;}
	.st4{fill-rule:evenodd;clip-rule:evenodd;fill:#ED2226;}
	.st5{fill-rule:evenodd;clip-rule:evenodd;fill:#FEFEFE;}
</style>
<g id="Слой_x0020_1">
	<g id="_2698682115088">
		<rect x="0.1" y="0.1" class="st0" width="2184" height="793.7"/>
		<g>
			<g>
				<g>
					<path class="st1" d="M1760.9,114.5h346c3.7,0,6.6,3,6.6,6.6v23.1c0,3.7-3,6.6-6.6,6.6h-346c-3.7,0-6.6-3-6.6-6.6v-23.1
						C1754.3,117.5,1757.3,114.5,1760.9,114.5z"/>
					<path class="st2" d="M1741.8,156.3h379.4c3.7,0,6.6,3,6.6,6.6v40c0,3.7-3,6.6-6.6,6.6h-379.4c-3.7,0-6.6-3-6.6-6.6v-40
						C1735.2,159.3,1738.2,156.3,1741.8,156.3L1741.8,156.3z"/>
					<path class="st2" d="M1768.7,217.9h329.7c3.2,0,6,1.2,8.1,3.6c2.2,2.4,3.1,5.2,2.9,8.4L2071,669.3c-0.5,5.7-5.3,10.1-11,10.1
						h-254.6c-5.8,0-10.5-4.4-11-10.1l-36.7-439.4c-0.3-3.2,0.7-6,2.9-8.4S1765.5,217.9,1768.7,217.9L1768.7,217.9z"/>
				</g>
				<path class="st3" d="M1818.4,346.3c24.4-8.8,54-12.3,80.9-0.1c-0.8-3.8,0-8.5,1.3-13.1c2-6.9,8.7-5.4,9.7-1.4
					c0.6,2.4-0.1,3.2-0.7,5.4c-1.2,4.5-2.2,10.9-1.6,14.4c0.4,2.3,1,4.2-0.4,6.5c-3,5.3-8.3,1.6-13.1-2
					c-18.4-13.5-54.2-6.4-74.1,0.5c-2.7,0.9-7.5,2.9-10.2,2.9c-4,0-6.1-2.8-3.7-7.2C1808.1,349.2,1815.1,347.5,1818.4,346.3
					L1818.4,346.3z M2002.9,297.6c26,0,47.4,19.8,49.8,45.2c1.4-3.3,4.7-5.7,8.5-5.7c4.7,0,8.5,3.5,9.2,8h2.2c0.5-1.2,1.7-2,3-2
					c1.8,0,3.3,1.5,3.3,3.3c0,1.8-1.5,3.3-3.3,3.3c-1.3,0-2.5-0.8-3-2h-2.2c-0.6,4.5-4.5,8-9.2,8c-3.7,0-6.9-2.2-8.4-5.3
					c-1.4,26.4-23.3,47.4-50,47.4c-27.7,0-50.1-22.4-50.1-50.1C1952.8,320,1975.2,297.6,2002.9,297.6L2002.9,297.6z M1967.9,343.9
					c0.4-4.3,1.7-8.4,4.2-12.5c4.8-8,11.9-13.7,21.1-15.7c3.3-0.7,6.4-0.7,9.4,0.2c5.1,0.9,6.4,8.2-2.6,7.6
					c-10.6-0.7-20.5,8.3-22.4,17.5c-0.6,3.2,1.1,5-1.9,6.9C1972.6,349.9,1967.8,349.8,1967.9,343.9L1967.9,343.9z M2075.6,353.4
					c1.8,0,3.3,1.5,3.3,3.3c0,1.8-1.5,3.3-3.3,3.3c-1.8,0-3.3-1.5-3.3-3.3C2072.4,354.9,2073.8,353.4,2075.6,353.4z M2075.6,362.3
					c1.8,0,3.3,1.5,3.3,3.3c0,1.8-1.5,3.3-3.3,3.3c-1.8,0-3.3-1.5-3.3-3.3C2072.4,363.8,2073.8,362.3,2075.6,362.3z M2075.6,372.1
					c1.8,0,3.3,1.5,3.3,3.3c0,1.8-1.5,3.3-3.3,3.3c-1.8,0-3.3-1.5-3.3-3.3C2072.4,373.6,2073.8,372.1,2075.6,372.1z M2075.6,382.4
					c1.8,0,3.3,1.5,3.3,3.3c0,1.8-1.5,3.3-3.3,3.3c-1.8,0-3.3-1.5-3.3-3.3C2072.4,383.8,2073.8,382.4,2075.6,382.4z M2075.6,392
					c1.8,0,3.3,1.5,3.3,3.3c0,1.8-1.5,3.3-3.3,3.3c-1.8,0-3.3-1.5-3.3-3.3C2072.4,393.4,2073.8,392,2075.6,392z M2075.6,401.5
					c1.8,0,3.3,1.5,3.3,3.3c0,1.8-1.5,3.3-3.3,3.3c-1.8,0-3.3-1.5-3.3-3.3C2072.4,402.9,2073.8,401.5,2075.6,401.5z M2075.6,411.3
					c1.8,0,3.3,1.5,3.3,3.3c0,1.8-1.5,3.3-3.3,3.3c-1.8,0-3.3-1.5-3.3-3.3C2072.4,412.7,2073.8,411.3,2075.6,411.3z M2075.6,421
					c1.8,0,3.3,1.5,3.3,3.3c0,1.8-1.5,3.3-3.3,3.3c-1.8,0-3.3-1.5-3.3-3.3C2072.4,422.4,2073.8,421,2075.6,421z M2075.6,430.5
					c1.8,0,3.3,1.5,3.3,3.3c0,1.8-1.5,3.3-3.3,3.3c-1.8,0-3.3-1.5-3.3-3.3C2072.4,432,2073.8,430.5,2075.6,430.5z M1932,452.1
					c-7.4-7.7-15.7-13.2-25.1-16.6c-26.3-9.5-53.1,4-73,21.9c-8.4,7.6-16.7,18.2-29.2,13.4c-10.8-4.1-18.4-12.9-24.7-23.6
					c1.6,48.1,34.9,68.5,73.4,68.3c30.3-0.1,56.9-10.3,78.7-32.1c21.7,21.8,48.3,31.9,78.7,32.1c38.5,0.2,71.8-20.2,73.4-68.3
					c-6.3,10.7-14,19.5-24.7,23.6c-12.5,4.8-20.8-5.8-29.2-13.4c-19.8-17.9-46.6-31.4-73-21.9C1947.7,438.8,1939.3,444.3,1932,452.1
					z"/>
			</g>
			<path class="st1" d="M256.2,115.4c-6.1,40.7-12.1,81.5-18.2,122.2c-4.7-40.7-9.4-81.5-14.1-122.2c-23.6,0-47.1,0-70.7,0
				c-24.1,10.2-17.5,38.2,0,43.4c0,96.5,0,193,0,289.4c-18.7,13.9-21.6,36.9-4.8,43.9c16.3,0,32.7,0,49,0c15.3-3.5,11.2-38-6.8-43
				c0-61.9,0-125.7,0-187.6c9.9,76.9,19.9,153.7,29.8,230.6c8.9,0,17.8,0,26.8,0c9.1-76.1,18.2-152.2,27.3-228.3
				c0,61.1,0,122.2,0,183.4c-14.9,10.6-21.5,40.9,0,45c17.2,0,34.3,0,51.5,0c12.3-3.1,16-14.3,12.3-26c-2.1-6.7-6.7-12.7-12.3-17.5
				c0-94.8,0-189.6,0-284.4c0-2.3,0-4.6,0-6.9c13.2-1.7,23.3-31.2,6.2-42C306.8,115.4,281.5,115.4,256.2,115.4L256.2,115.4z
				 M426.2,259.2c-9.7,0-19.4,0-29.1,0c-14.1,0-20.7,4.6-21.7,19.3c-0.5,7.9,2.9,15.8,12.4,18.6c0,53.1,0,106.2,0,159.4
				c-13.1,2.6-20,27.3-1.8,35.8h53.5c14,0,13.9-35.8-4.3-35.8c0-38.1,0-78.8,0-116.9c-1.8-5.9,3.4-32.9,15.9-25.6
				c0.8,0.5,1.9,6.2,1.9,6.2c36-4.9,40.3-41,21.2-57.7c-17.9-15.7-49.5-4.2-48.1,15.4C426.2,271.6,426.2,265.4,426.2,259.2
				L426.2,259.2z M539.3,420.8c19,0,34.4,17.9,34.4,39.9c0,22-15.4,39.9-34.4,39.9c-19,0-34.4-17.9-34.4-39.9
				C504.9,438.6,520.3,420.8,539.3,420.8z M756.5,123.4c0.4,25.9,2.2,51.9-0.1,77.7c-1.6,17.4-14.1,22.4-25.1,16.5
				c-14.5-7.9-9.6-65.6-32.7-65.7c-33.7,0-29.8,301.6,4.2,300c18-0.8,26-38.9,26.9-52.7c0.3-4.5,0.4-8.9,0.3-12.7
				c11.1,0,22.2,0,33.3,0c0,3,0,6,0,8.9c-0.3,22.9-3.6,46-17.1,68.1c-32,52.5-91.5,42.9-114-33.1c-12.1-29.1-21.6-110.1-13.4-183.5
				c9.7-86.9,43.4-164.7,112.6-119.1c-4.5-13.1,6.6-13.3,16.8-12.7C758.1,115.6,756.4,113.9,756.5,123.4L756.5,123.4z M880.5,108.5
				c47.2,0,85.5,87.5,85.5,195.4s-38.3,195.4-85.5,195.4c-47.2,0-85.5-87.5-85.5-195.4S833.3,108.5,880.5,108.5z M880.5,154
				c12.6,0,22.9,67.1,22.9,149.8c0,82.7-10.2,149.8-22.9,149.8s-22.9-67.1-22.9-149.8C857.7,221.1,867.9,154,880.5,154z M1187.5,466
				v21.6c2.2,3.7,1.9,4.6,6.3,4.6c18.3,0,36.6,0,54.9,0c23.4,0,17.3-35.8,4.8-44.3c0-43,0-86,0-129.1c17,0,14.2,15.2,17.3,25
				c4.2,13.3,23.2,16.5,29.2,1.8v-84.9c0-0.5,0-1.1-0.1-1.6c-0.9-11.2-25.6-13.4-26.3,1c-0.4,7.9-3.9,21.7-13.7,21.7
				c-2.1,0-4.3,0-6.4,0c0-41,0-82,0-123c41-2.3,34.2,13.9,37.7,40.4c1.6,12.2,27.1,13.2,29.5,1.5c0.1-0.3,0-0.5,0-0.8
				c0-25.8,0-51.5,0-77.3c-1.9-2.4-3.9-4.9-5.8-7.3c-1.6,0-3.1,0-4.7,0c-38.4,0-76.8,0-115.3,0c-5.5-0.3-9.2,1.5-10.6,5.9l-0.5,25.8
				c7.9,2.1,11.3,7.5,11.1,15.7c0,95,0,190.1,0,285.1C1189,455.2,1187.5,456.4,1187.5,466L1187.5,466z M1363,459.6V487
				c1,1.8,2.2,3.5,3.6,5.3c20.9,0,41.8,0,62.6,0c19.2,0,38.4,0,57.6,0c5.6,0,9.3,0.8,14.2-2.4c6.1-3.9,5.2-9.8,5.3-17.8
				c0.1-23.3,0.3-46.6,0.4-69.9c0-4.3,0.5-6.1-1.7-10c-6-10.7-19.8-8.5-26.9-0.4c-3.3,3.8-3.6,6.7-4.7,11.4
				c-1,10.5-6,47.2-21.2,47.2h-23c0-43,0-92,0-135c12.5,2,9.9,17.5,13,27.3c4.2,13.3,23.6,14.2,29.6-0.5c0-28.9,0-57.8,0-86.6
				c0-0.5,0-1.1-0.1-1.6c0.2-14.4-25.1-19.9-30.4-1.8c-2,6.8-0.5,20.4-5.5,23.9c-1.8,1.2-4.4,0.6-6.6,0.6c0-41,0-76.7,0-117.7
				c41-2.3,34.2,13.9,37.7,40.4c1.6,12.2,27.1,13.2,29.5,1.5c0.1-0.3,0-0.5,0-0.8c0-25.8,0-51.5,0-77.3c-1.9-2.4-3.9-4.9-5.8-7.3
				c-1.6,0-3.1,0-4.7,0c-38.4,0-76.8,0-115.3,0c-5.5-0.3-9.2,1.5-10.6,5.9l-0.5,25.8c7.9,2.1,11.3,7.5,11.1,15.7
				c0,95,0,190.1,0,285.1C1367.4,451.8,1364.9,455.7,1363,459.6L1363,459.6z M1544.3,459.6V487c1,1.8,2.2,3.5,3.6,5.3
				c20.9,0,41.8,0,62.6,0c19.2,0,38.4,0,57.6,0c5.6,0,9.3,0.8,14.2-2.4c6.1-3.9,5.2-9.8,5.3-17.8c0.1-23.3,0.3-46.6,0.4-69.9
				c0-4.3,0.5-6.1-1.7-10c-6-10.7-19.8-8.5-26.9-0.4c-3.3,3.8-3.6,6.7-4.7,11.4c-1,10.5-6,47.2-21.2,47.2h-23c0-43,0-92,0-135
				c12.5,2,9.9,17.5,13,27.3c4.2,13.3,23.6,14.2,29.6-0.5c0-28.9,0-57.8,0-86.6c0-0.5,0-1.1-0.1-1.6c0.2-14.4-25.1-19.9-30.4-1.8
				c-2,6.8-0.5,20.4-5.5,23.9c-1.8,1.2-4.4,0.6-6.6,0.6c0-41,0-76.7,0-117.7c41-2.3,34.2,13.9,37.7,40.4
				c1.6,12.2,27.1,13.2,29.5,1.5c0.1-0.3,0-0.5,0-0.8c0-25.8,0-51.5,0-77.3c-1.9-2.4-3.9-4.9-5.8-7.3c-1.6,0-3.1,0-4.7,0
				c-38.4,0-76.8,0-115.3,0c-5.5-0.3-9.2,1.5-10.6,5.9l-0.5,25.8c7.9,2.1,11.3,7.5,11.1,15.7c0,95,0,190.1,0,285.1
				C1548.8,451.8,1546.2,455.7,1544.3,459.6L1544.3,459.6z M1010.7,466v21.6c2.2,3.7,1.9,4.6,6.3,4.6c18.3,0,36.6,0,54.9,0
				c23.4,0,17.3-35.8,4.8-44.3c0-43,0-86,0-129.1c17,0,14.2,15.2,17.3,25c4.2,13.3,23.2,16.5,29.2,1.8v-84.9c0-0.5,0-1.1-0.1-1.6
				c-0.9-11.2-25.6-13.4-26.3,1c-0.4,7.9-3.9,21.7-13.7,21.7c-2.1,0-4.3,0-6.4,0c0-41,0-82,0-123c41-2.3,34.2,13.9,37.7,40.4
				c1.6,12.2,27.1,13.2,29.5,1.5c0.1-0.3,0-0.5,0-0.8c0-25.8,0-51.5,0-77.3c-1.9-2.4-3.9-4.9-5.8-7.3c-1.6,0-3.1,0-4.7,0
				c-38.4,0-76.8,0-115.3,0c-5.5-0.3-9.2,1.5-10.6,5.9l-0.5,25.8c7.9,2.1,11.3,7.5,11.1,15.7c0,95,0,190.1,0,285.1
				C1012.2,455.2,1010.7,456.4,1010.7,466L1010.7,466z"/>
			<rect x="859.5" y="525" class="st4" width="828.4" height="149"/>
			<path class="st5" d="M892.2,553.3h11.2v40c1.5-0.1,2.7-0.3,3.8-0.7c1.3-0.5,2.3-1.1,3.1-2l0,0c0.8-1,1.8-2.7,2.9-5.1
				c1.1-2.5,2.4-5.8,3.8-9.9c1-3,2-5.6,2.8-7.7c0.9-2.2,1.6-3.9,2.3-5.2l0,0c0.7-1.3,1.6-2.6,2.6-3.7c1-1.1,2.2-2.1,3.5-3
				c1.3-0.9,2.8-1.6,4.2-2.1c1.5-0.5,3-0.7,4.7-0.7c1.7,0,3.2,0,4.3,0c1.2,0,1.9,0.1,2.2,0.2l0.9,0.4v12.8h-1.4l-0.8,0l-2.5-0.1
				l-0.6,0c-1.4,0-2.6,0.2-3.5,0.6c-0.9,0.4-1.7,0.9-2.3,1.7l0,0c-0.7,0.8-1.4,2.2-2.3,4.1c-0.9,2-1.8,4.4-2.8,7.4
				c-1.3,3.9-2.4,7.1-3.5,9.6c-1.1,2.6-2.1,4.4-3.1,5.5c-0.9,1.1-1.9,2-3,2.9c-0.4,0.3-0.8,0.6-1.2,0.9c1.7,1,3.4,2.5,5.1,4.5
				c2.4,2.8,4.8,6.6,7.2,11.3l16.2,32.4h-15.3c-1.5-3.1-12.1-24.8-12.8-25.5c-1.7-3.4-3.2-6.3-4.6-8.6c-1.4-2.3-2.6-4-3.7-5.2v0
				c-1-1.1-2.1-2-3.4-2.5c-0.9-0.4-1.9-0.6-2.9-0.8v42.6h-12.6v-94.1L892.2,553.3L892.2,553.3z M950.3,601.5
				c0-7.7,0.7-14.5,2.2-20.6c1.5-6.1,3.8-11.4,6.8-15.8c3-4.5,6.5-7.8,10.5-10.1c4-2.3,8.4-3.4,13.3-3.4c3.2,0,6.2,0.5,9.1,1.6
				c2.9,1.1,5.6,2.7,8.2,4.8h0c2.5,2.1,4.8,4.6,6.7,7.5c1.9,2.9,3.5,6.2,4.8,9.9c1.3,3.7,2.3,7.6,2.9,11.8c0.7,4.2,1,8.6,1,13.2
				c0,9.4-1.4,17.9-4.1,25.3c-1.4,3.8-3.1,7.1-5,9.9c-2,2.9-4.3,5.3-6.8,7.3c-2.6,2-5.3,3.5-8.1,4.4c-2.8,1-5.7,1.5-8.7,1.5
				c-3.3,0-6.3-0.6-9.3-1.7c-2.9-1.1-5.6-2.7-8.2-4.9h0c-2.5-2.2-4.8-4.7-6.7-7.7c-1.9-2.9-3.5-6.2-4.8-9.9
				c-1.3-3.7-2.2-7.4-2.9-11.3C950.6,609.6,950.3,605.6,950.3,601.5z M962.1,601.8c0,5.4,0.5,10.2,1.5,14.4c1,4.2,2.5,7.7,4.6,10.8
				c2,3,4.2,5.2,6.7,6.7c2.4,1.4,5.1,2.2,8.1,2.2c3,0,5.7-0.7,8.2-2.2c2.5-1.5,4.7-3.7,6.7-6.7c2-3,3.5-6.7,4.5-11.1v0
				c1-4.4,1.5-9.5,1.5-15.3c0-7.3-0.9-13.6-2.6-19c-0.9-2.6-1.9-5-3.2-7.1c-1.2-2-2.7-3.8-4.3-5.2c-1.6-1.4-3.3-2.5-5.1-3.2
				c-1.8-0.7-3.7-1-5.6-1c-2.8,0-5.4,0.7-7.9,2c-2.5,1.4-4.7,3.4-6.8,6.2c-2.1,2.8-3.7,6.5-4.7,11.2
				C962.6,589.2,962.1,595,962.1,601.8L962.1,601.8z M1059.7,564.7v-12.2h12v12.2c4.3,0.4,8.3,1.5,11.8,3.2
				c3.9,1.9,7.3,4.6,10.1,8.1c2.8,3.5,5,7.3,6.4,11.6c1.4,4.3,2.1,8.9,2.1,14c0,5-0.7,9.6-2,13.8c-1.4,4.3-3.4,8.1-6.2,11.7
				c-2.8,3.5-6.1,6.3-10.1,8.2c-3.6,1.8-7.6,2.9-12.1,3.3V651h-12v-12.3c-4-0.3-7.7-1.3-11.2-2.9c-3.8-1.8-7.2-4.4-10.2-7.7
				c-3-3.3-5.3-7.2-6.8-11.7c-1.5-4.4-2.3-9.3-2.3-14.7c0-5.4,0.8-10.4,2.3-14.7c1.5-4.4,3.8-8.3,6.8-11.6c3-3.3,6.4-5.9,10.2-7.7
				C1051.9,566,1055.6,565,1059.7,564.7L1059.7,564.7z M1071.7,578.3v46.8c2.4-0.3,4.5-0.9,6.4-1.8c2.3-1.1,4.3-2.6,5.9-4.6
				c1.7-2,3-4.4,3.8-7.2c0.9-2.8,1.3-6.1,1.3-9.8c0-3.6-0.4-6.8-1.3-9.6c-0.8-2.8-2.1-5.2-3.7-7.2c-1.6-2-3.6-3.6-5.9-4.7
				C1076.3,579.2,1074.1,578.6,1071.7,578.3L1071.7,578.3z M1059.7,578.4c-2.3,0.3-4.3,0.8-6.2,1.7c-2.3,1.1-4.3,2.6-6,4.6
				c-1.7,2-3.1,4.4-3.9,7.2c-0.9,2.8-1.3,6.1-1.3,9.8c0,3.6,0.4,6.9,1.3,9.7c0.9,2.8,2.2,5.2,3.9,7.2c1.7,2,3.7,3.5,6,4.6
				c1.9,0.9,4,1.5,6.3,1.7V578.4L1059.7,578.4z M1119.3,646v-92.7h45.2v13.6H1130V592h32.3v13.6H1130v28.2h35.9v13.6h-46.5V646z
				 M1260.5,612.6l10,3.5l-0.2,1.2c-0.9,5.1-2.3,9.5-4,13.4c-1.7,3.9-3.8,7.2-6.3,10c-2.5,2.7-5.3,4.8-8.5,6.2
				c-3.1,1.4-6.5,2.1-10.2,2.1c-3.7,0-7.1-0.5-10.2-1.6c-3.1-1.1-5.8-2.7-8.2-4.8l0,0c-2.4-2.1-4.4-4.7-6.2-7.7
				c-1.8-3-3.2-6.4-4.4-10.3c-1.2-3.9-2.1-7.9-2.7-12c-0.6-4.2-0.9-8.4-0.9-12.8c0-4.8,0.3-9.3,1-13.6c0.7-4.2,1.7-8.2,3-11.8
				c1.4-3.6,3-6.9,5-9.7c2-2.8,4.2-5.2,6.8-7.1c2.6-1.9,5.3-3.4,8.1-4.3c2.8-1,5.8-1.5,8.9-1.5c3.5,0,6.8,0.6,9.7,1.9
				c3,1.2,5.7,3.1,8.1,5.6c2.4,2.4,4.4,5.4,6,8.8c1.6,3.4,2.9,7.2,3.8,11.5l0.3,1.3l-11.3,3.7l-0.4-1.5c-0.7-3.2-1.7-6-2.7-8.3
				c-1.1-2.3-2.3-4.1-3.6-5.5l0,0c-1.3-1.4-2.8-2.4-4.5-3.1c-1.7-0.7-3.5-1-5.6-1c-4.7,0-8.7,1.5-11.8,4.6c-1.6,1.6-3,3.4-4.1,5.6
				c-1.1,2.1-2.1,4.6-2.7,7.3v0c-0.7,2.8-1.2,5.6-1.5,8.5c-0.3,2.9-0.5,5.8-0.5,8.7c0,3.8,0.2,7.4,0.6,10.7c0.4,3.3,1,6.4,1.8,9.2
				c0.8,2.8,1.8,5.2,3,7.2c1.2,2,2.6,3.7,4.2,5c1.6,1.3,3.3,2.3,5,3c1.7,0.7,3.5,1,5.3,1c2.3,0,4.3-0.4,6.2-1.3
				c1.9-0.9,3.6-2.2,5.2-4c1.6-1.8,2.9-4.1,4-6.9c1.1-2.8,2-6.1,2.6-9.8l0.3-1.7L1260.5,612.6L1260.5,612.6z M1363.4,612.6l10,3.5
				l-0.2,1.2c-0.9,5.1-2.3,9.5-4,13.4c-1.7,3.9-3.9,7.2-6.4,10c-2.5,2.8-5.4,4.8-8.5,6.2c-3.1,1.4-6.5,2.1-10.2,2.1
				c-3.8,0-7.2-0.5-10.3-1.6c-3.1-1.1-5.9-2.7-8.3-4.8c-2.4-2.1-4.5-4.7-6.2-7.7c-1.8-3-3.3-6.4-4.5-10.3c-1.2-3.9-2.1-7.9-2.7-12
				c-0.6-4.1-0.9-8.4-0.9-12.8c0-4.8,0.3-9.3,1-13.6c0.7-4.2,1.7-8.2,3.1-11.8c1.4-3.7,3-6.9,5-9.7c2-2.8,4.3-5.2,6.8-7.1
				c2.6-1.9,5.3-3.4,8.1-4.3c2.9-1,5.8-1.5,8.9-1.5c3.5,0,6.8,0.6,9.8,1.9c3,1.2,5.7,3.1,8.1,5.5c2.4,2.4,4.4,5.4,6.1,8.8
				c1.6,3.4,2.9,7.2,3.8,11.5l0.3,1.3l-11.4,3.7l-0.4-1.5c-0.7-3.2-1.7-6-2.8-8.3c-1.1-2.3-2.3-4.1-3.6-5.5
				c-1.3-1.4-2.8-2.4-4.5-3.1c-1.7-0.7-3.5-1-5.6-1c-4.7,0-8.7,1.5-11.9,4.6c-1.6,1.6-3,3.4-4.1,5.6c-1.2,2.2-2.1,4.6-2.7,7.3
				c-0.7,2.8-1.2,5.6-1.5,8.5c-0.3,2.9-0.5,5.8-0.5,8.7c0,3.8,0.2,7.4,0.6,10.7c0.4,3.3,1,6.4,1.8,9.2c0.8,2.8,1.8,5.2,3,7.3
				c1.2,2,2.6,3.7,4.2,5c1.6,1.3,3.3,2.3,5,3c1.7,0.7,3.5,1,5.4,1c2.3,0,4.4-0.4,6.3-1.3c1.9-0.9,3.7-2.2,5.2-4
				c1.6-1.8,3-4.1,4.1-6.9c1.1-2.8,2-6.1,2.6-9.8l0.3-1.7L1363.4,612.6L1363.4,612.6z M1377.2,601.5c0-7.7,0.7-14.5,2.2-20.6
				c1.5-6.1,3.7-11.4,6.7-15.8c3-4.5,6.4-7.8,10.3-10.1c3.9-2.3,8.3-3.4,13.1-3.4c3.1,0,6.1,0.5,9,1.6c2.8,1.1,5.5,2.7,8,4.8v0
				c2.5,2.1,4.7,4.6,6.6,7.5c1.9,2.9,3.5,6.2,4.8,9.9c1.3,3.7,2.2,7.6,2.9,11.8c0.6,4.1,1,8.5,1,13.2c0,4.7-0.3,9.1-1,13.4
				c-0.7,4.2-1.7,8.2-3,11.9c-1.4,3.8-3,7.1-4.9,9.9c-1.9,2.9-4.2,5.3-6.7,7.3c-2.5,2-5.2,3.4-7.9,4.4c-2.8,1-5.6,1.5-8.6,1.5
				c-3.2,0-6.2-0.6-9.1-1.7c-2.9-1.1-5.6-2.7-8.1-4.9c-2.5-2.2-4.7-4.7-6.6-7.7c-1.9-2.9-3.4-6.2-4.7-9.9c-1.3-3.6-2.2-7.4-2.8-11.3
				C1377.5,609.6,1377.2,605.6,1377.2,601.5L1377.2,601.5z M1388.9,601.8c0,5.4,0.5,10.2,1.5,14.4c1,4.2,2.5,7.7,4.5,10.8
				c2,3,4.2,5.2,6.6,6.7c2.4,1.4,5,2.2,7.9,2.2c2.9,0,5.6-0.7,8-2.2c2.5-1.5,4.7-3.7,6.6-6.7c2-3,3.5-6.7,4.5-11.1
				c1-4.4,1.5-9.5,1.5-15.3c0-3.7-0.2-7.1-0.6-10.2c-0.4-3.2-1.1-6.1-1.9-8.8c-0.8-2.6-1.9-5-3.1-7.1c-1.2-2-2.6-3.8-4.2-5.2l0,0
				c-1.6-1.4-3.3-2.5-5-3.2c-1.7-0.7-3.6-1-5.5-1c-2.8,0-5.3,0.7-7.7,2c-2.4,1.4-4.6,3.4-6.7,6.2c-2.1,2.8-3.6,6.5-4.6,11.2
				C1389.4,589.2,1388.9,595,1388.9,601.8L1388.9,601.8z M1462.1,553.3h40.5v13.6h-31.1v25.3h12.9c2.7,0,5.2,0.2,7.4,0.6h0
				c2.2,0.4,4.2,1,5.9,1.9c1.7,0.8,3.3,2.1,4.7,3.7c1.4,1.6,2.5,3.5,3.5,5.7c1,2.2,1.7,4.6,2.2,7.2c0.5,2.6,0.7,5.3,0.7,8.2
				c0,2.4-0.2,4.7-0.5,6.9c-0.4,2.2-0.9,4.4-1.6,6.5c-0.7,2.1-1.6,4-2.7,5.8c-1.1,1.7-2.3,3.3-3.8,4.6c-1.5,1.4-3.5,2.5-6,3.2
				c-2.4,0.7-5.3,1-8.6,1h-25v-94.1L1462.1,553.3L1462.1,553.3z M1471.5,634.2h14.5c2,0,3.7-0.3,5.1-0.9c1.4-0.6,2.5-1.4,3.5-2.6
				c0.9-1.2,1.7-2.7,2.1-4.5c0.5-1.9,0.8-4.1,0.8-6.6c0-1.8-0.1-3.4-0.4-4.9c-0.3-1.4-0.7-2.8-1.3-3.9c-0.5-1.1-1.2-2-1.9-2.8
				c-0.7-0.7-1.5-1.2-2.4-1.6c-1-0.4-2.4-0.7-4.1-0.8c-1.8-0.2-4-0.3-6.6-0.3h-9.2L1471.5,634.2L1471.5,634.2z M1521.9,601.5
				c0-7.7,0.8-14.5,2.3-20.6c1.5-6.1,3.9-11.4,7-15.8c3.1-4.5,6.7-7.8,10.8-10.1c4.1-2.3,8.6-3.4,13.6-3.4c3.3,0,6.4,0.5,9.4,1.6
				c3,1.1,5.8,2.6,8.4,4.8c2.6,2.1,4.9,4.6,6.9,7.5c2,2.9,3.6,6.2,5,9.9c1.3,3.7,2.4,7.6,3,11.8c0.7,4.2,1,8.6,1,13.2
				c0,4.7-0.4,9.2-1.1,13.4c-0.7,4.2-1.8,8.2-3.2,11.9c-1.4,3.8-3.1,7.1-5.2,9.9c-2,2.9-4.4,5.3-7,7.3c-2.7,2-5.4,3.4-8.3,4.4
				c-2.9,1-5.9,1.5-9,1.5c-3.3,0-6.5-0.6-9.5-1.6c-3-1.1-5.8-2.7-8.4-4.9c-2.6-2.2-4.9-4.7-6.9-7.7c-2-2.9-3.6-6.2-4.9-9.9
				c-1.3-3.7-2.3-7.4-3-11.3C1522.2,609.6,1521.9,605.6,1521.9,601.5L1521.9,601.5z M1534,601.8c0,5.4,0.5,10.2,1.6,14.4
				c1.1,4.2,2.6,7.7,4.7,10.8c2.1,3,4.4,5.2,6.9,6.7c2.5,1.4,5.3,2.2,8.3,2.2c3.1,0,5.9-0.7,8.5-2.2c2.6-1.5,4.9-3.7,6.9-6.7
				c2.1-3,3.6-6.7,4.7-11.1c1.1-4.4,1.6-9.5,1.6-15.3c0-3.7-0.2-7.1-0.7-10.2c-0.5-3.2-1.1-6.1-2-8.7c-0.9-2.7-2-5-3.3-7.1
				c-1.3-2-2.8-3.7-4.4-5.2c-1.7-1.4-3.4-2.5-5.3-3.2c-1.8-0.7-3.8-1.1-5.8-1.1c-2.9,0-5.6,0.7-8.1,2c-2.5,1.4-4.9,3.4-7,6.2
				c-2.2,2.8-3.8,6.5-4.9,11.2C1534.5,589.2,1534,595,1534,601.8L1534,601.8z M1643.2,541.8h7l-0.1,1.6c-0.2,2.4-0.7,4.6-1.4,6.5
				c-0.7,1.9-1.7,3.6-3,4.9c-1.3,1.4-2.7,2.4-4.4,3.1c-1.7,0.7-3.5,1-5.6,1c-2.1,0-3.9-0.3-5.6-1c-1.7-0.7-3.2-1.7-4.4-3.1l0,0
				c-1.2-1.4-2.2-3-3-5c-0.7-1.9-1.2-4-1.4-6.5l-0.1-1.6h8.2l0.2,1.2c0.2,1.1,0.5,2.1,0.8,2.9c0.3,0.8,0.8,1.4,1.2,1.9l0,0
				c0.5,0.5,1,0.8,1.6,1.1c0.7,0.2,1.4,0.4,2.3,0.4c1.1,0,1.9-0.1,2.7-0.4c0.7-0.2,1.3-0.6,1.7-1l0,0c0.5-0.5,0.9-1.1,1.2-1.9
				c0.4-0.8,0.6-1.8,0.8-3l0.2-1.2L1643.2,541.8L1643.2,541.8z M1608.4,553.3h9.3v67.5l32.7-67.5h10.9v94.1h-10.7v-67.3l-32.6,67.3
				h-11v-94.1H1608.4L1608.4,553.3z"/>
		</g>
	</g>
</g>
</svg>
